<?xml version="1.0" standalone="no"?>
<!DOCTYPE svg PUBLIC "-//W3C//DTD SVG 20010904//EN"
 "http://www.w3.org/TR/2001/REC-SVG-20010904/DTD/svg10.dtd">
<svg version="1.0" xmlns="http://www.w3.org/2000/svg"
 width="1798.000000pt" height="951.000000pt" viewBox="0 0 1798.000000 951.000000"
 preserveAspectRatio="xMidYMid meet">
<metadata>
Created by potrace 1.15, written by Peter Selinger 2001-2017
</metadata>
<g transform="translate(0.000000,951.000000) scale(0.100000,-0.100000)"
fill="#000000" stroke="none">
<path d="M8655 7476 c-199 -22 -205 -25 -205 -106 l0 -42 -35 6 c-65 13 -279
7 -365 -10 -163 -30 -374 -128 -587 -270 -68 -46 -146 -102 -173 -124 l-50
-42 0 -74 c0 -72 1 -75 28 -85 15 -6 53 -9 85 -6 l58 5 129 -161 129 -162 1
-76 c0 -91 8 -101 83 -106 60 -5 65 -2 221 103 57 39 178 108 268 154 90 45
198 107 240 136 43 30 79 54 82 54 2 0 6 -9 9 -19 8 -30 64 -35 223 -21 249
23 485 3 692 -59 104 -32 197 -40 232 -21 11 6 21 26 25 51 7 39 10 42 72 70
36 16 66 29 68 29 5 0 35 -92 35 -108 0 -8 -7 -20 -16 -27 -20 -14 -30 -99
-16 -136 6 -16 44 -49 94 -83 46 -31 102 -71 125 -88 53 -39 138 -50 178 -24
22 15 25 23 25 79 0 51 -5 69 -24 95 -17 23 -25 52 -30 101 -4 38 -18 117 -31
177 -14 59 -23 109 -21 111 7 7 159 33 193 33 19 0 56 -7 84 -16 68 -23 136
-12 150 22 12 32 12 86 -1 118 -11 29 -110 104 -201 154 -94 50 -199 42 -199
-15 0 -41 -10 -49 -62 -57 -45 -7 -48 -6 -63 24 -14 27 -15 39 -4 80 8 33 9
62 3 91 -9 42 -10 44 -88 76 -129 54 -311 103 -385 103 -51 0 -69 4 -86 20
-35 33 -201 51 -505 55 -175 3 -306 -1 -385 -9z m555 -86 c63 -6 149 -15 191
-21 l75 -11 -17 -70 c-10 -38 -20 -72 -22 -75 -3 -2 -14 15 -25 39 -22 50 -83
88 -170 107 -64 13 -331 15 -365 2 -32 -12 -35 -35 -24 -153 l9 -98 188 0
c174 0 188 1 205 20 25 27 35 25 35 -7 0 -82 -29 -137 -43 -83 -3 11 -17 24
-32 30 -35 13 -340 26 -347 14 -9 -15 12 -298 23 -309 6 -6 78 -10 188 -10
l177 0 60 31 c35 18 64 42 72 57 14 28 49 39 38 12 -3 -8 -10 -44 -16 -78 -6
-35 -15 -68 -19 -75 -6 -9 -30 -9 -107 2 -202 29 -412 29 -597 -1 -29 -4 -38
-3 -33 5 4 7 17 12 29 12 45 1 59 23 52 82 -12 105 -35 284 -45 338 -6 30 -12
82 -15 115 -8 78 -20 90 -91 87 -107 -5 -43 16 88 27 73 7 142 14 153 15 50 8
281 5 385 -4z m738 -164 c39 -15 72 -32 72 -36 0 -5 -16 -2 -35 6 -19 7 -39
14 -45 14 -15 0 -12 -32 4 -56 8 -11 35 -67 61 -124 26 -58 50 -108 53 -112 4
-4 43 2 87 12 44 10 113 24 153 30 41 7 72 17 72 23 0 7 -14 24 -32 39 -59 49
-14 29 98 -43 122 -80 119 -77 113 -84 -3 -2 -28 7 -56 21 -47 24 -56 25 -105
15 -29 -6 -96 -18 -148 -26 -52 -9 -112 -21 -132 -26 -35 -9 -37 -11 -28 -35
22 -57 70 -265 80 -349 16 -128 17 -132 48 -160 46 -43 9 -28 -60 24 -35 27
-90 66 -122 86 -32 20 -55 39 -52 43 4 3 12 0 18 -6 15 -15 45 -16 50 -1 9 28
-78 338 -97 346 -15 5 -83 -22 -225 -88 -117 -55 -129 -70 -80 -97 l25 -13
-25 4 c-60 11 -166 41 -174 49 -6 4 10 8 35 8 32 0 58 8 90 29 60 37 290 141
315 141 24 0 26 21 4 68 -12 26 -32 67 -43 92 -26 57 -124 218 -149 246 -10
12 -37 27 -58 34 -22 7 -40 16 -40 20 0 10 231 -57 328 -94z m-717 31 c31 -14
32 -15 10 -16 -14 -1 -34 -10 -46 -21 -19 -18 -30 -19 -132 -13 -110 6 -111 6
-116 32 -3 14 -3 30 0 35 9 14 245 0 284 -17z m-805 -28 c85 -26 112 -40 150
-76 49 -45 63 -75 66 -133 3 -74 -28 -135 -112 -220 -86 -89 -165 -141 -367
-244 -165 -84 -313 -174 -364 -222 -14 -13 -32 -24 -39 -24 -10 0 -5 9 12 25
50 46 48 51 -80 212 -65 81 -147 185 -182 231 -59 77 -67 83 -93 78 -16 -3
-42 -15 -58 -27 -17 -12 -33 -19 -36 -16 -3 3 37 37 89 75 274 203 518 322
728 355 81 13 221 6 286 -14z m1187 -21 c40 -15 190 -260 170 -278 -4 -5 -55
-29 -113 -55 -58 -25 -115 -53 -127 -61 -32 -20 -35 -18 -28 16 9 40 -3 106
-22 125 -9 10 -34 15 -69 15 l-55 0 7 73 c3 39 9 75 11 80 2 4 28 7 58 7 59 0
81 14 91 58 11 46 8 45 77 20z m-441 -248 c23 -27 32 -30 83 -30 51 0 56 -2
44 -16 -7 -8 -31 -25 -53 -37 -35 -18 -57 -20 -155 -19 -62 0 -115 2 -116 4
-2 2 -6 31 -10 66 l-7 62 94 0 c91 0 94 -1 120 -30z"/>
<path d="M8741 7361 c-6 -10 -8 -20 -6 -23 12 -11 12 -103 0 -114 -7 -7 -15
-11 -18 -8 -2 3 -7 -2 -10 -10 -5 -12 23 -30 44 -27 9 1 22 -166 14 -179 -3
-5 -1 -10 4 -10 6 0 11 -7 11 -15 0 -8 -6 -15 -12 -15 -10 0 -10 -2 -2 -8 12
-7 36 -170 28 -184 -3 -4 0 -8 6 -8 6 0 8 -5 4 -11 -4 -7 1 -7 15 1 18 9 20
14 10 26 -6 8 -13 46 -15 84 -2 39 -5 74 -7 78 -3 4 -8 52 -12 107 -4 55 -9
113 -10 130 -2 16 1 35 7 42 7 9 7 13 -1 13 -12 0 -15 46 -3 53 4 2 1 2 -6 0
-9 -2 -12 7 -10 30 2 23 7 31 20 29 9 -1 20 3 24 9 5 8 2 10 -9 6 -9 -3 -18 0
-21 9 -8 20 -33 17 -45 -5z"/>
<path d="M9862 7153 c60 -105 90 -171 82 -184 -3 -5 -1 -9 4 -9 9 0 29 -40 61
-127 12 -33 15 -53 8 -53 -6 0 -4 -6 5 -12 19 -15 67 -201 73 -279 2 -33 9
-55 19 -61 12 -7 14 -2 9 29 -10 75 -44 229 -59 275 -8 26 -13 52 -9 58 3 5 2
10 -2 10 -4 0 -19 30 -32 68 -13 37 -55 132 -95 212 -39 80 -71 146 -71 146 0
1 -10 5 -22 8 -19 6 -15 -4 29 -81z"/>
<path d="M7990 7189 c-94 -25 -342 -152 -375 -191 l-24 -29 89 -132 c215 -317
247 -362 262 -365 8 -2 91 36 184 84 148 77 178 97 240 158 91 92 124 157 124
246 0 58 -4 71 -35 117 -19 28 -48 61 -66 73 -84 61 -256 77 -399 39z m299
-106 c41 -21 63 -41 84 -75 l29 -47 -26 -56 c-42 -93 -129 -170 -273 -243 -67
-34 -124 -62 -127 -62 -13 0 -237 342 -232 355 8 22 219 124 300 146 94 25
171 20 245 -18z"/>
<path d="M7504 6916 c1 -7 45 -72 99 -144 53 -73 97 -135 97 -138 0 -4 -9 -4
-20 -1 -11 3 -17 1 -14 -4 3 -6 13 -9 22 -7 20 5 34 -10 115 -119 34 -47 65
-79 70 -74 5 5 -36 69 -92 147 -56 77 -102 144 -102 149 -1 6 -10 16 -21 24
-11 7 -17 20 -14 28 3 8 2 12 -3 8 -5 -3 -32 27 -60 67 -46 65 -82 95 -77 64z"/>
<path d="M7225 6690 c-11 -4 -37 -6 -57 -3 -48 7 -103 -4 -123 -23 -10 -11
-15 -35 -15 -81 0 -49 -5 -71 -17 -86 -14 -14 -18 -36 -18 -88 0 -82 13 -99
78 -106 39 -5 50 -11 71 -43 19 -29 33 -39 64 -44 82 -13 133 11 152 69 9 27
18 35 55 44 54 14 65 32 65 110 0 52 -4 65 -29 93 -20 23 -31 50 -36 83 -11
74 -25 85 -104 84 -36 0 -75 -4 -86 -9z m95 -134 c0 -50 3 -57 36 -84 43 -35
38 -50 -18 -58 -37 -6 -43 -11 -61 -56 -12 -26 -24 -48 -29 -48 -4 0 -19 17
-33 38 -22 32 -33 38 -81 47 l-56 10 31 39 c34 42 36 54 21 105 -5 19 -7 37
-4 42 2 4 25 -1 51 -12 l46 -20 36 25 c54 37 61 34 61 -28z"/>
<path d="M10469 6683 c-9 -10 -20 -40 -24 -68 -5 -33 -16 -60 -36 -83 -25 -28
-29 -41 -29 -93 0 -78 11 -96 65 -110 37 -9 46 -17 55 -44 19 -58 70 -82 152
-69 31 5 45 15 64 44 21 32 32 38 71 43 65 7 78 24 78 106 0 52 -4 74 -17 88
-13 14 -18 37 -18 84 0 35 -4 69 -8 76 -13 20 -63 34 -121 33 -31 0 -92 2
-136 6 -70 5 -82 4 -96 -13z m130 -98 l38 -26 46 20 c26 11 49 16 51 12 3 -5
1 -23 -4 -42 -15 -51 -13 -63 21 -105 l31 -39 -56 -10 c-48 -9 -59 -15 -81
-47 -14 -21 -29 -38 -33 -38 -5 0 -17 22 -29 48 -18 45 -24 50 -61 56 -56 8
-61 23 -18 58 33 27 36 34 36 84 0 30 5 54 10 54 6 0 28 -11 49 -25z"/>
<path d="M6902 6218 c-31 -19 -37 -20 -87 -8 -64 15 -129 9 -157 -16 -17 -16
-19 -29 -17 -107 3 -83 2 -90 -24 -123 -33 -41 -45 -114 -28 -167 10 -30 19
-38 49 -47 20 -5 55 -10 77 -10 38 0 42 -3 73 -54 18 -30 42 -58 55 -62 33
-12 136 -7 152 6 8 6 24 38 37 71 21 55 26 60 63 70 105 26 115 38 115 130 0
62 0 63 -50 109 l-50 46 0 68 c0 58 -3 70 -25 91 -20 21 -33 25 -87 25 -47 0
-71 -6 -96 -22z m110 -150 l-4 -75 56 -44 c31 -24 56 -47 56 -51 0 -11 -17
-19 -83 -37 l-62 -16 -25 -68 c-13 -37 -30 -67 -37 -67 -7 0 -30 27 -50 59
l-37 59 -73 7 c-40 4 -75 10 -77 14 -3 4 16 33 41 65 l47 59 -18 69 c-10 39
-14 74 -10 78 5 5 38 -3 74 -19 l65 -27 60 38 c33 21 65 36 70 34 6 -2 9 -34
7 -78z"/>
<path d="M10775 6215 c-22 -21 -25 -33 -25 -91 l0 -68 -50 -46 c-50 -46 -50
-47 -50 -109 0 -92 10 -104 115 -130 37 -10 42 -15 63 -70 13 -33 29 -65 37
-71 16 -13 119 -18 152 -6 13 4 37 32 55 62 31 51 35 54 73 54 22 0 57 5 77
10 30 9 39 17 49 47 17 53 5 126 -28 167 -26 33 -27 40 -24 123 2 78 0 91 -17
107 -28 24 -93 31 -157 16 -49 -12 -56 -11 -88 9 -52 32 -149 30 -182 -4z
m150 -103 l60 -38 65 27 c36 16 69 24 74 19 4 -4 0 -39 -10 -78 l-18 -69 47
-59 c25 -32 44 -61 41 -65 -2 -4 -37 -10 -77 -14 l-73 -7 -37 -59 c-20 -32
-43 -59 -50 -59 -7 0 -24 30 -37 67 l-25 68 -62 16 c-66 18 -83 26 -83 37 0 4
25 27 56 51 l57 44 -6 72 c-6 67 -3 85 12 85 3 0 33 -17 66 -38z"/>
<path d="M8685 6170 c-71 -10 -148 -24 -170 -30 -397 -114 -644 -257 -895
-516 -146 -151 -209 -246 -210 -318 -1 -13 -16 -31 -40 -48 -49 -34 -105 -118
-121 -181 -14 -58 -8 -263 9 -294 10 -19 9 -34 -4 -80 -12 -43 -15 -84 -12
-172 5 -137 20 -173 104 -261 l54 -57 0 -94 c0 -170 40 -278 139 -377 60 -60
146 -106 230 -122 74 -14 2378 -14 2452 0 84 16 170 62 230 122 99 99 139 207
139 377 l0 94 54 57 c84 88 99 124 104 261 3 88 0 129 -12 172 -13 46 -14 61
-4 80 17 31 23 236 9 294 -16 63 -70 144 -120 179 -25 18 -41 37 -41 50 -1 71
-64 167 -210 318 -240 248 -493 398 -850 502 -141 42 -251 55 -485 59 -179 4
-244 1 -350 -15z m506 -90 c107 -10 125 -14 269 -51 215 -55 425 -156 620
-297 94 -69 281 -256 344 -345 46 -64 48 -71 43 -116 -6 -47 -5 -48 31 -69 85
-48 162 -167 162 -250 0 -44 -29 -129 -58 -169 l-20 -29 26 -44 c57 -94 65
-155 32 -244 -22 -58 -81 -133 -124 -155 -26 -14 -26 -16 -26 -122 0 -185 -33
-281 -125 -368 -30 -29 -81 -64 -112 -79 l-58 -27 -1200 0 -1200 0 -58 27
c-31 15 -82 50 -112 79 -92 87 -125 183 -125 368 0 106 0 108 -26 122 -43 22
-102 97 -124 155 -33 89 -25 150 32 244 l26 44 -20 29 c-28 39 -58 125 -58
167 0 84 68 197 147 244 l49 30 -4 50 c-4 47 -1 55 40 111 63 85 208 235 297
307 225 181 482 301 791 368 129 27 370 37 541 20z"/>
<path d="M8755 5854 c-284 -44 -537 -156 -759 -334 -84 -68 -246 -237 -246
-257 0 -11 229 -13 1245 -13 1016 0 1245 2 1245 13 0 20 -162 189 -246 257
-227 182 -478 291 -771 335 -125 18 -345 18 -468 -1z m49 -59 c32 -30 34 -72
5 -109 -45 -57 -139 -19 -139 56 0 36 43 78 80 78 15 0 39 -11 54 -25z m475
10 c71 -36 44 -145 -35 -145 -87 0 -115 107 -39 148 27 15 41 15 74 -3z m-700
-143 c6 -21 25 -51 41 -67 29 -27 38 -30 113 -33 l82 -4 -3 -69 c-3 -51 1 -76
12 -94 9 -13 16 -27 16 -30 0 -3 -96 -5 -214 -5 l-215 0 15 28 c8 16 14 57 14
103 0 62 -4 81 -21 103 -11 14 -19 32 -17 38 4 10 136 66 160 67 4 1 12 -16
17 -37z m935 7 c37 -13 70 -29 73 -36 3 -6 -5 -25 -17 -41 -20 -27 -22 -39
-18 -113 3 -46 8 -92 12 -101 8 -17 -6 -18 -203 -18 -116 0 -211 2 -211 5 0 3
7 17 16 30 11 18 15 43 12 93 l-3 70 83 4 c74 4 85 7 112 33 17 16 36 46 42
67 6 22 16 37 22 35 6 -2 42 -14 80 -28z m-1203 -128 c32 -33 37 -65 13 -99
-46 -66 -143 -36 -143 43 0 36 17 61 50 74 38 15 49 13 80 -18z m718 14 c75
-38 49 -149 -34 -149 -82 0 -109 109 -36 149 33 18 36 18 70 0z m727 5 c36
-14 53 -38 53 -75 0 -79 -97 -109 -143 -43 -24 34 -19 66 13 99 33 32 38 34
77 19z"/>
<path d="M7620 5023 c-26 -10 -70 -56 -70 -75 0 -10 13 -32 29 -50 l29 -33
1374 -2 c1077 -2 1378 0 1397 10 13 6 33 24 44 39 27 37 15 74 -33 99 -33 18
-86 19 -1395 18 -748 0 -1367 -3 -1375 -6z"/>
<path d="M7600 4627 c-38 -19 -57 -59 -42 -91 23 -52 53 -61 214 -65 93 -2
148 0 148 7 0 5 -35 44 -77 86 l-78 76 -70 0 c-38 0 -81 -6 -95 -13z"/>
<path d="M8263 4453 l187 -188 187 188 188 187 -375 0 -375 0 188 -187z"/>
<path d="M9057 4562 c-42 -42 -77 -81 -77 -85 0 -10 1328 -8 1375 3 43 10 85
49 85 80 0 10 -11 32 -24 47 l-24 28 -629 3 -628 2 -78 -78z"/>
<path d="M7720 4157 c0 -118 22 -169 90 -207 l45 -25 1140 0 1140 0 45 25 c68
38 90 89 90 207 l0 93 -762 0 -761 0 -122 -119 c-173 -170 -179 -170 -355 5
l-116 114 -217 0 -217 0 0 -93z m435 -67 l59 -60 -163 0 -163 0 -29 29 c-19
20 -29 40 -29 60 l0 31 133 0 133 0 59 -60z m2005 29 c0 -20 -10 -40 -29 -60
l-29 -29 -708 0 -708 0 59 60 59 60 678 0 678 0 0 -31z"/>
<path d="M6780 5573 c-8 -3 -40 -21 -72 -39 l-56 -34 -54 21 c-75 31 -180 32
-210 2 -29 -29 -35 -110 -14 -188 17 -66 16 -69 -61 -164 -25 -30 -28 -43 -28
-102 0 -97 14 -109 142 -122 l98 -9 30 -51 c17 -28 43 -66 59 -84 27 -32 31
-33 100 -33 88 0 103 12 141 115 15 39 31 75 36 81 5 6 44 19 88 28 44 10 88
26 99 37 26 24 36 75 27 134 -6 41 -13 51 -73 101 l-67 55 -5 109 c-6 134 -12
143 -102 147 -35 1 -70 0 -78 -4z m78 -95 c8 -8 10 -41 5 -113 l-6 -101 69
-54 c119 -93 118 -98 -21 -131 l-94 -21 -31 -82 c-54 -143 -60 -145 -124 -41
-67 107 -64 105 -161 105 -138 0 -143 10 -55 117 33 40 60 81 60 90 0 10 -11
56 -25 102 -14 46 -22 88 -19 93 9 14 48 5 134 -32 l76 -32 84 55 c47 31 87
56 91 56 3 1 10 -4 17 -11z"/>
<path d="M10942 5570 c-32 -14 -42 -49 -42 -154 l0 -92 -69 -56 c-63 -52 -70
-61 -76 -102 -9 -60 1 -111 27 -135 11 -11 55 -27 99 -37 44 -9 83 -22 88 -28
5 -6 21 -42 36 -81 38 -103 53 -115 141 -115 69 0 73 1 100 33 16 18 42 56 59
84 l30 51 98 9 c128 13 142 25 142 122 0 59 -3 72 -28 102 -77 95 -78 98 -61
164 21 78 15 159 -14 188 -30 30 -135 29 -210 -2 l-54 -21 -61 37 c-50 30 -73
38 -122 40 -33 2 -70 -2 -83 -7z m165 -136 l87 -56 76 32 c86 37 125 46 134
32 3 -5 -5 -47 -19 -93 -14 -46 -25 -92 -25 -102 0 -9 27 -50 60 -90 88 -107
83 -117 -55 -117 -97 0 -94 2 -161 -105 -64 -104 -70 -102 -124 41 l-31 82
-94 21 c-139 33 -140 38 -21 131 l69 54 -6 101 c-5 72 -3 105 5 113 7 7 13 12
15 12 2 0 42 -25 90 -56z"/>
<path d="M6338 4803 c-49 -8 -53 -22 -52 -202 3 -351 94 -789 212 -1016 61
-117 163 -226 247 -266 33 -16 65 -29 71 -29 7 0 13 -35 16 -97 9 -166 76
-300 220 -441 110 -107 204 -163 330 -197 86 -23 234 -18 292 10 41 20 49 29
162 205 112 176 103 164 125 144 10 -9 19 -21 19 -26 0 -8 -84 -186 -154 -325
l-31 -63 -66 0 c-42 0 -70 -5 -77 -13 -18 -22 -25 -92 -13 -130 10 -29 22 -39
89 -70 254 -119 419 -161 477 -123 20 13 25 25 25 57 0 22 4 39 8 37 5 -1 36
-23 70 -48 51 -38 62 -51 67 -83 6 -31 13 -41 39 -52 48 -20 242 -45 403 -52
181 -8 193 -2 193 87 0 33 2 60 4 60 2 0 32 -13 67 -29 107 -50 205 -64 407
-58 137 3 195 9 254 25 120 33 243 90 337 157 123 89 125 89 223 90 86 0 88 1
117 33 18 19 40 32 54 32 64 0 287 169 488 369 184 184 309 344 309 395 0 28
6 38 36 55 30 18 47 45 114 184 101 208 123 274 118 350 -5 66 -15 77 -70 77
-21 0 -38 4 -38 10 0 5 27 47 59 93 50 71 65 84 97 93 26 6 43 17 51 34 25 52
56 330 57 512 1 211 1 211 -94 211 -78 0 -90 -11 -100 -99 -4 -38 -19 -94 -32
-124 -14 -30 -28 -64 -32 -75 -6 -16 -12 -8 -27 41 -25 81 -74 153 -124 181
-52 30 -161 31 -220 4 -47 -22 -102 -78 -139 -143 -43 -77 -112 -266 -136
-373 -24 -109 -65 -215 -143 -370 -28 -55 -53 -120 -56 -145 -5 -40 -9 -45
-33 -48 -20 -2 -40 -20 -74 -65 -120 -158 -259 -289 -414 -389 -55 -36 -78
-57 -86 -81 -11 -30 -15 -32 -69 -37 -44 -4 -61 -11 -76 -29 -10 -13 -19 -29
-19 -36 0 -18 -41 -31 -165 -50 -245 -38 -513 -137 -641 -236 l-52 -40 -48 51
c-36 39 -74 64 -149 101 -90 43 -237 89 -290 89 -11 0 -32 6 -47 14 -14 8 -43
19 -65 26 -21 7 -91 35 -155 61 -65 27 -124 49 -133 49 -8 0 -15 4 -15 9 0 5
-42 36 -92 69 -51 33 -117 77 -146 98 -49 34 -59 38 -118 38 -38 0 -69 -5 -77
-13 -7 -8 -12 -42 -12 -94 l0 -82 -90 -119 c-49 -65 -98 -131 -108 -147 -12
-18 -28 -29 -41 -29 -35 0 -168 93 -204 144 -48 67 -67 116 -50 131 24 22 220
180 251 203 26 18 45 22 107 22 41 0 82 4 89 9 10 6 16 32 19 73 3 70 5 67
-92 193 -32 42 -69 96 -83 121 -31 56 -47 64 -122 64 -78 0 -91 -13 -91 -89
l0 -58 -49 -30 -48 -31 -7 61 c-10 100 -9 107 19 107 35 0 89 52 103 98 24 79
15 233 -22 391 -41 172 -54 261 -65 434 -4 70 -12 132 -18 138 -15 15 -84 23
-126 15 -38 -7 -57 -40 -57 -97 0 -16 -1 -29 -2 -29 -115 -10 -434 -28 -439
-25 -3 3 -9 32 -11 65 -2 33 -9 64 -14 69 -11 12 -90 20 -126 14z m71 -229
c12 -31 12 -31 63 -23 28 5 135 13 237 19 256 14 290 19 301 41 6 10 10 38 10
63 0 25 4 46 8 46 5 0 12 -60 15 -132 7 -147 22 -248 68 -443 37 -154 37 -246
2 -292 -17 -23 -28 -28 -64 -27 -34 1 -48 7 -71 32 -15 18 -29 32 -31 32 -2 0
8 -42 21 -92 15 -60 26 -135 29 -210 5 -106 4 -120 -15 -150 -40 -65 -90 -75
-174 -34 -111 53 -231 216 -290 394 -68 207 -119 464 -133 667 -3 50 -8 122
-11 162 -7 89 8 124 17 38 3 -33 11 -74 18 -91z m5196 4 c-5 -104 -11 -146
-21 -154 -16 -13 -19 -28 -4 -19 6 3 10 -2 10 -12 0 -44 -33 -249 -42 -258 -6
-6 -7 7 -3 38 4 28 3 47 -2 47 -6 0 -33 -37 -61 -83 -69 -114 -155 -227 -240
-319 -40 -43 -72 -80 -72 -82 0 -6 61 -36 72 -36 6 0 22 -9 37 -19 15 -11 43
-22 63 -26 31 -6 38 -3 56 22 11 16 24 41 27 56 8 30 25 46 25 23 0 -8 -21
-64 -47 -125 -34 -80 -50 -108 -57 -100 -8 8 -7 13 2 16 6 3 12 9 12 14 0 6
-4 7 -10 4 -5 -3 -10 -1 -10 5 0 7 6 10 13 7 10 -4 14 4 14 25 l0 30 -19 -23
-19 -24 7 24 c5 19 3 23 -9 18 -12 -4 -14 -2 -10 10 4 11 1 14 -12 12 -10 -2
-20 -11 -22 -19 -4 -13 -3 -13 6 0 7 9 11 10 11 3 0 -6 -5 -15 -10 -18 -6 -4
-8 -11 -5 -16 10 -15 -1 -11 -110 43 -98 49 -103 53 -88 70 15 17 13 18 -40
18 -43 0 -62 5 -76 19 -11 11 -21 17 -24 15 -2 -3 -18 11 -36 31 -26 30 -31
33 -31 15 l0 -20 -40 20 c-38 19 -60 20 -60 1 0 -4 25 -19 56 -34 42 -21 53
-31 46 -40 -8 -9 -8 -17 0 -27 8 -12 9 -12 4 2 -9 31 13 30 85 -3 60 -28 70
-36 65 -53 -5 -21 -5 -21 9 -2 15 20 18 17 17 -19 -1 -17 0 -17 4 -2 3 9 9 17
12 17 4 0 49 -21 99 -47 57 -29 91 -53 88 -60 -2 -7 5 -17 16 -23 11 -6 17
-15 14 -20 -7 -11 5 -40 16 -40 5 0 9 6 9 14 0 7 7 20 17 27 9 8 -7 -32 -36
-89 -29 -56 -56 -100 -61 -97 -4 2 3 26 16 52 35 69 32 89 -18 113 -24 11 -56
29 -73 40 -16 10 -67 37 -113 61 -46 23 -99 52 -118 65 -19 13 -51 32 -72 43
-20 10 -51 26 -69 35 -39 21 -64 11 -93 -37 -37 -59 -20 -14 38 107 33 67 67
142 77 169 21 57 31 56 15 -2 -7 -25 -7 -48 -2 -57 6 -11 11 8 16 62 19 216
129 532 219 631 79 87 159 81 219 -18 46 -74 63 -157 63 -312 l0 -138 22 28
c30 37 142 257 187 366 26 64 36 102 36 142 0 32 4 55 11 55 7 0 8 -44 4 -142z
m-4275 -938 c11 -22 54 -84 95 -139 41 -54 75 -102 75 -106 0 -4 -16 7 -35 24
-20 17 -42 31 -49 31 -7 0 -53 -32 -102 -72 -49 -39 -123 -99 -164 -132 -134
-107 -140 -115 -140 -164 0 -64 55 -176 118 -239 66 -66 165 -122 230 -130 91
-10 92 -9 222 167 19 26 55 73 80 105 25 31 57 75 72 97 25 38 26 43 13 68 -8
15 -21 30 -30 33 -8 4 -15 11 -15 16 0 10 278 -169 279 -180 1 -4 -18 0 -40 8
-53 18 -53 17 -154 -140 -148 -231 -143 -224 -186 -241 -50 -20 -95 -20 -172
0 -253 65 -498 344 -501 569 -1 75 22 111 105 165 32 20 88 60 126 87 37 28
87 60 110 72 51 25 62 56 39 102 -9 18 -16 36 -16 41 0 18 21 -4 40 -42z
m3523 -69 c36 -22 111 -63 164 -91 111 -58 139 -77 130 -86 -4 -4 -14 -1 -23
7 -10 8 -43 13 -86 13 -62 1 -72 -2 -89 -23 -22 -27 -26 -115 -7 -168 12 -32
10 -40 -22 -101 -24 -46 -65 -98 -132 -167 l-98 -100 -34 40 c-20 22 -35 43
-36 46 0 7 159 166 180 179 8 5 25 10 38 10 42 0 62 33 62 105 0 65 0 66 -47
110 l-48 44 0 75 c0 64 -3 78 -24 99 -20 23 -22 47 -3 47 4 0 38 -18 75 -39z
m-138 -99 c-3 -3 -24 -5 -45 -3 -64 4 -122 -33 -253 -162 -114 -112 -119 -119
-113 -149 3 -18 12 -36 19 -39 6 -4 36 -37 66 -73 43 -52 57 -63 71 -56 31 17
209 191 231 226 15 24 20 44 15 64 -8 45 7 44 62 -2 36 -31 48 -46 41 -55 -6
-6 -17 -9 -25 -6 -26 10 -70 -17 -122 -77 -29 -33 -84 -85 -122 -117 -39 -31
-70 -61 -70 -66 0 -6 17 -29 38 -52 20 -23 62 -72 92 -109 78 -95 83 -93 243
63 145 142 193 221 204 339 5 55 3 65 -16 86 -18 19 -19 25 -8 35 11 9 30 0
91 -39 l76 -51 -32 -46 c-117 -171 -324 -388 -498 -522 -119 -92 -227 -164
-242 -159 -5 2 8 16 31 31 23 15 47 39 53 52 9 20 6 29 -18 62 -16 21 -33 46
-39 55 -5 9 -30 43 -55 77 -25 33 -75 102 -112 153 -107 148 -107 148 -137
148 -14 0 -37 -7 -49 -16 -13 -9 -26 -13 -30 -9 -4 4 2 12 12 19 182 108 406
312 503 458 l25 37 60 -45 c32 -26 57 -49 53 -52z m-2575 -523 c52 -23 124
-52 160 -65 58 -21 61 -23 23 -18 -23 3 -49 1 -59 -4 -11 -6 16 -11 87 -15
129 -8 238 -35 348 -88 141 -68 222 -174 186 -243 -7 -13 -11 -27 -9 -29 3 -3
-14 -21 -38 -41 -59 -51 -156 -79 -275 -80 -51 -1 -93 -4 -93 -8 0 -12 192
-133 306 -192 43 -22 84 -36 107 -36 20 0 39 -5 43 -11 13 -21 -420 20 -456
43 -10 6 -3 7 22 3 46 -7 57 9 21 32 -71 44 -222 161 -303 233 -90 81 -110 93
-110 64 0 -8 -11 -39 -25 -68 -14 -30 -26 -71 -28 -92 -2 -36 0 -39 53 -66 77
-39 38 -35 -80 9 -93 34 -117 53 -67 53 18 0 19 -2 7 -10 -11 -7 -4 -9 24 -8
32 1 36 3 22 13 -21 16 -21 26 1 18 12 -5 15 -2 10 10 -4 10 0 20 11 27 13 7
8 8 -17 3 -40 -7 -42 -18 22 129 38 90 43 96 58 82 16 -15 17 -13 14 27 -4 53
12 99 33 100 12 0 13 2 4 6 -10 4 -2 17 25 46 32 34 35 39 16 34 -28 -6 -28
-6 -3 42 17 35 18 51 0 51 -4 0 -17 -24 -30 -52 -30 -67 -27 -63 -43 -49 -11
9 -17 8 -28 -5 -11 -14 -10 -15 9 -12 29 4 28 -2 -4 -77 -17 -41 -33 -65 -43
-65 -14 0 -14 -2 -1 -11 11 -8 12 -12 3 -16 -7 -2 -13 -11 -13 -18 0 -23 -79
-190 -90 -190 -6 0 -20 -11 -31 -25 -12 -14 -18 -19 -14 -12 3 6 2 12 -4 12
-19 0 -17 -25 3 -42 21 -18 21 -18 -9 -8 -59 21 -165 73 -165 81 0 8 27 2 45
-11 32 -23 105 -21 105 2 0 10 38 90 172 366 68 139 69 144 53 168 -9 14 -27
29 -41 34 -23 9 -32 20 -16 20 4 0 50 -19 102 -41z m1853 -45 c54 -101 47
-113 -42 -69 -73 36 -141 41 -276 21 -203 -30 -346 -90 -444 -186 -91 -89
-129 -192 -101 -274 16 -49 95 -128 156 -155 216 -97 500 -45 670 124 67 66
110 154 98 201 -10 39 -57 58 -111 44 -25 -6 -48 -9 -50 -6 -7 7 107 57 134
59 11 1 19 5 16 10 -2 4 0 7 4 7 5 0 57 27 117 60 60 34 111 58 115 55 3 -4
-3 -11 -14 -17 -33 -19 -65 -56 -65 -75 1 -10 14 -36 30 -58 16 -22 47 -74 69
-115 42 -77 42 -106 0 -76 -13 9 -37 16 -55 16 -40 0 -132 -47 -216 -110 -152
-115 -332 -179 -528 -187 -265 -11 -464 64 -528 200 -24 52 -25 89 -1 141 40
86 123 156 272 226 147 69 304 113 544 150 76 12 123 38 123 69 0 21 9 31 25
31 7 0 33 -39 58 -86z m-112 -150 c35 -18 36 -18 -22 -47 -34 -17 -45 -30 -52
-57 -10 -40 -1 -116 15 -126 6 -4 36 -10 67 -13 l56 -6 -60 -60 c-66 -66 -148
-114 -239 -140 -142 -41 -327 4 -395 97 -36 49 -37 57 -12 106 74 144 309 257
544 261 44 1 79 -4 98 -15z"/>
<path d="M6404 4457 c1 -51 2 -84 4 -74 5 25 22 21 22 -6 0 -15 6 -24 15 -24
12 0 14 7 9 31 -3 17 -3 28 1 24 4 -4 16 -3 26 2 12 7 19 6 22 -3 4 -9 6 -9 6
0 1 7 8 10 16 7 8 -4 15 -2 15 3 0 14 70 15 88 1 9 -7 13 -8 9 -2 -4 8 8 15
35 22 35 9 44 8 55 -6 12 -16 13 -16 7 1 -5 14 0 17 24 17 16 0 35 -6 41 -14
10 -12 15 -11 35 9 18 17 39 24 99 30 64 5 77 10 77 24 0 16 -8 16 -112 4 -62
-7 -130 -11 -150 -9 -21 1 -38 -1 -38 -5 0 -5 -14 -9 -31 -9 -16 0 -28 4 -24
9 3 5 1 12 -5 16 -5 3 -10 0 -10 -9 0 -13 -26 -23 -70 -26 -8 0 -37 -3 -64 -6
-53 -7 -65 2 -66 46 0 20 -2 22 -10 10 -8 -13 -10 -13 -10 2 0 9 -4 19 -8 22
-4 2 -8 -37 -8 -87z"/>
<path d="M6915 4386 c-27 -6 -56 -15 -62 -19 -37 -24 17 -265 74 -333 31 -37
71 -57 99 -50 55 14 73 147 39 296 -28 125 -38 132 -150 106z"/>
<path d="M6740 4359 c-25 -5 -100 -16 -168 -26 -102 -14 -125 -20 -134 -37
-16 -29 -4 -133 31 -276 50 -202 137 -358 241 -433 37 -26 54 -32 98 -32 45 0
56 4 72 25 57 75 53 222 -15 525 -40 177 -67 270 -78 264 -1 -1 -22 -5 -47
-10z m13 -206 c65 -276 83 -413 63 -470 -12 -35 -29 -28 -89 37 -74 79 -130
195 -167 344 -43 170 -45 161 48 179 129 24 117 32 145 -90z"/>
<path d="M11028 4400 c-195 -173 -194 -553 1 -600 44 -10 55 -9 98 10 61 27
87 51 133 123 31 49 38 55 43 38 3 -15 11 -19 27 -16 29 6 34 11 24 26 -5 9
-10 7 -15 -7 -7 -18 -8 -17 -8 3 -1 12 4 25 9 28 6 3 10 1 10 -4 0 -22 16 -10
30 22 22 51 22 53 11 37 -6 -8 -11 -11 -11 -7 0 13 33 67 41 67 3 0 14 18 24
40 10 22 22 40 27 40 4 0 7 3 6 8 -3 10 31 74 53 98 10 11 22 42 25 70 l6 49
-23 -35 c-13 -19 -22 -39 -21 -44 2 -4 -10 -29 -25 -55 -15 -25 -33 -58 -40
-74 -7 -15 -19 -30 -27 -33 -8 -3 -13 -11 -10 -18 5 -14 -28 -56 -45 -56 -6 0
-11 -8 -11 -17 0 -15 -2 -16 -10 -3 -7 11 -10 7 -10 -17 0 -17 -4 -35 -10 -38
-5 -3 -10 -15 -10 -26 0 -12 -4 -17 -11 -14 -6 4 -8 14 -4 22 17 45 24 159 15
221 -22 135 -89 212 -184 212 -48 0 -56 -4 -108 -50z m165 -102 c33 -54 45
-140 28 -204 -17 -64 -85 -162 -126 -181 -35 -17 -35 -17 -65 12 -40 38 -53
85 -48 165 4 54 13 82 42 133 37 68 100 130 126 125 8 -2 27 -24 43 -50z"/>
<path d="M7348 3522 c-6 -15 -115 -92 -130 -92 -9 0 -18 -6 -21 -14 -8 -20
-138 -117 -148 -110 -5 3 -7 10 -3 15 3 5 10 6 16 3 7 -4 8 -2 4 5 -5 8 -16 5
-35 -11 -15 -13 -24 -24 -19 -26 13 -6 9 -22 -6 -22 -8 0 -18 10 -22 22 l-6
21 -13 -24 c-14 -25 -3 -65 15 -54 4 3 6 -4 3 -15 -8 -29 2 -25 48 20 23 22
45 40 50 40 5 0 18 9 29 20 12 12 26 18 32 14 7 -4 8 -3 4 4 -7 11 32 38 47
34 5 -1 6 2 2 8 -3 5 -2 10 4 10 5 0 16 6 23 13 7 7 45 38 84 68 39 30 69 60
66 67 -4 14 -19 16 -24 4z"/>
<path d="M7772 3026 c-70 -101 -68 -99 -91 -87 -14 8 -22 8 -27 -1 -4 -6 -3
-9 2 -6 5 3 15 0 22 -8 10 -11 9 -17 -8 -34 -12 -12 -26 -18 -33 -13 -8 4 -7
1 1 -10 12 -14 10 -20 -12 -42 -14 -14 -23 -25 -20 -25 2 0 -3 -11 -12 -25 -9
-14 -25 -25 -36 -25 -18 0 -19 -2 -7 -17 13 -15 12 -15 -18 0 -28 15 -32 15
-37 1 -5 -12 -2 -15 10 -10 14 5 15 4 5 -8 -10 -11 -9 -16 3 -23 8 -4 15 -12
15 -18 0 -5 4 -11 11 -13 6 -2 10 0 9 5 -3 20 2 25 15 14 12 -10 17 -8 25 8 6
11 11 25 11 32 0 11 112 175 144 212 9 9 16 19 16 23 0 3 18 31 40 64 26 38
35 60 27 63 -7 2 -31 -23 -55 -57z"/>
<path d="M10210 3135 c0 -14 4 -25 9 -25 4 0 20 -18 35 -41 22 -32 26 -47 20
-72 -6 -27 -4 -30 8 -20 11 10 17 10 28 0 10 -10 12 -9 6 3 -6 13 -5 12 6 0
60 -71 108 -142 102 -152 -4 -6 -3 -8 3 -5 6 4 16 1 22 -7 9 -11 9 -15 -1 -19
-9 -4 -8 -6 3 -6 15 -1 119 -124 119 -141 0 -4 7 -11 16 -14 8 -3 12 -2 9 4
-3 6 3 10 14 10 14 0 19 5 15 15 -4 8 -12 15 -19 15 -18 0 -98 97 -90 110 4 6
1 9 -5 8 -7 -2 -17 6 -23 17 -7 11 -17 24 -24 30 -20 17 -144 185 -137 185 4
0 -5 9 -20 21 -14 11 -23 25 -20 31 4 6 3 8 -3 5 -9 -6 -24 16 -37 56 -8 27
-36 21 -36 -8z"/>
<path d="M8330 2806 c-85 -24 -142 -79 -159 -156 -17 -77 38 -163 149 -232 14
-8 54 -20 90 -26 84 -15 169 -2 229 35 64 40 84 72 89 142 4 55 1 63 -31 113
-76 113 -224 163 -367 124z m201 -114 c54 -35 99 -86 99 -114 0 -26 -51 -74
-97 -89 -20 -6 -55 -9 -82 -5 -59 8 -146 65 -167 110 -15 31 -15 35 2 61 24
37 87 65 150 65 38 0 61 -7 95 -28z"/>
</g>
</svg>
